<svg width="67" height="87" viewBox="0 0 67 87" fill="none" xmlns="http://www.w3.org/2000/svg">
<g filter="url(#filter0_f_2840_1109)">
<rect x="11" y="31.5" width="24" height="24" rx="12" fill="#C4C4C4" fill-opacity="0.61"/>
</g>
<path d="M20.2846 48.1188C20.7799 49.5682 22.7827 49.6121 23.3699 48.2505L23.4196 48.1179L24.088 46.1632C24.2412 45.715 24.4887 45.3047 24.8139 44.9603C25.1391 44.6158 25.5344 44.345 25.9731 44.1663L26.1529 44.0992L28.1076 43.4316C29.557 42.9363 29.6009 40.9336 28.2401 40.3464L28.1076 40.2967L26.1529 39.6283C25.7044 39.4752 25.2941 39.2277 24.9494 38.9025C24.6048 38.5773 24.3339 38.1819 24.1551 37.7431L24.088 37.5642L23.4204 35.6087C22.9251 34.1592 20.9224 34.1153 20.336 35.4762L20.2846 35.6087L19.6171 37.5634C19.464 38.0118 19.2165 38.4222 18.8913 38.7668C18.5661 39.1115 18.1708 39.3823 17.7319 39.5612L17.553 39.6283L15.5983 40.2958C14.1481 40.7911 14.1042 42.7939 15.4658 43.3803L15.5983 43.4316L17.553 44.0992C18.0013 44.2524 18.4115 44.4999 18.756 44.8251C19.1005 45.1503 19.3712 45.5456 19.55 45.9843L19.6171 46.1632L20.2846 48.1188ZM28.4786 50.9746C28.6336 50.9746 28.7854 50.9311 28.9169 50.8492C29.0484 50.7672 29.1542 50.6499 29.2224 50.5108L29.2622 50.4139L29.5521 49.5641L30.4027 49.2742C30.558 49.2214 30.6941 49.1238 30.7938 48.9936C30.8935 48.8634 30.9524 48.7065 30.9628 48.5428C30.9733 48.3791 30.9349 48.2161 30.8526 48.0742C30.7703 47.9324 30.6477 47.8182 30.5004 47.746L30.4027 47.7063L29.5529 47.4164L29.263 46.5658C29.2102 46.4105 29.1124 46.2745 28.9822 46.1748C28.8519 46.0752 28.695 46.0165 28.5313 46.0061C28.3677 45.9957 28.2046 46.0342 28.0628 46.1165C27.921 46.1989 27.8069 46.3215 27.7349 46.4689L27.6951 46.5658L27.4052 47.4156L26.5546 47.7055C26.3993 47.7582 26.2632 47.8559 26.1635 47.9861C26.0637 48.1163 26.0049 48.2732 25.9945 48.4368C25.984 48.6005 26.0223 48.7636 26.1047 48.9054C26.187 49.0473 26.3096 49.1615 26.4569 49.2336L26.5546 49.2734L27.4044 49.5633L27.6943 50.4139C27.7501 50.5775 27.8558 50.7196 27.9965 50.8201C28.1371 50.9207 28.3057 50.9747 28.4786 50.9746Z" fill="url(#paint0_radial_2840_1109)" stroke="url(#paint1_linear_2840_1109)" stroke-width="1.24239"/>
<defs>
<filter id="filter0_f_2840_1109" x="-20.5" y="0" width="87" height="87" filterUnits="userSpaceOnUse" color-interpolation-filters="sRGB">
<feFlood flood-opacity="0" result="BackgroundImageFix"/>
<feBlend mode="normal" in="SourceGraphic" in2="BackgroundImageFix" result="shape"/>
<feGaussianBlur stdDeviation="15.75" result="effect1_foregroundBlur_2840_1109"/>
</filter>
<radialGradient id="paint0_radial_2840_1109" cx="0" cy="0" r="1" gradientUnits="userSpaceOnUse" gradientTransform="translate(0.317657 62.1561) rotate(-40.8554) scale(40.5171 40.5158)">
<stop stop-opacity="0.79"/>
<stop offset="0.632239" stop-color="white"/>
<stop offset="1"/>
</radialGradient>
<linearGradient id="paint1_linear_2840_1109" x1="-13.0341" y1="69.5119" x2="54.1767" y2="20.7295" gradientUnits="userSpaceOnUse">
<stop stop-color="#001538" stop-opacity="0"/>
<stop offset="0.396666" stop-color="#EFEFEF" stop-opacity="0.11"/>
<stop offset="1" stop-color="white"/>
</linearGradient>
</defs>
</svg>
